<svg width="390" height="202" viewBox="0 0 390 202" fill="none" xmlns="http://www.w3.org/2000/svg">
<mask id="mask0_62_124" style="mask-type:alpha" maskUnits="userSpaceOnUse" x="0" y="0" width="390" height="202">
<rect width="390" height="202" fill="#D9D9D9"/>
</mask>
<g mask="url(#mask0_62_124)">
<path d="M219.019 99.6392C219.019 155.819 115.145 201.362 -12.9905 201.362C-141.126 201.362 -245 155.819 -245 99.6392C-245 43.4592 -141.126 -2.08361 -12.9905 -2.08361C115.145 -2.08361 219.019 43.4592 219.019 99.6392Z" fill="#F7898F"/>
<path d="M532.933 151.447C516.253 205.304 403.131 218.16 280.267 180.163C157.402 142.166 71.3221 67.7035 88.0014 13.8472C104.681 -40.0092 217.803 -52.8655 340.668 -14.8683C463.532 23.1289 549.612 97.5909 532.933 151.447Z" fill="#F7898F"/>
<path d="M219.019 90.3447C219.019 146.525 115.145 192.067 -12.9905 192.067C-141.126 192.067 -245 146.525 -245 90.3447C-245 34.1648 -141.126 -11.3781 -12.9905 -11.3781C115.145 -11.3781 219.019 34.1648 219.019 90.3447Z" fill="#EF1A2D"/>
<path d="M532.933 142.153C516.253 196.009 403.131 208.866 280.267 170.868C157.402 132.871 71.3221 58.4091 88.0014 4.55273C104.681 -49.3036 217.803 -62.16 340.668 -24.1628C463.532 13.8344 549.612 88.2965 532.933 142.153Z" fill="#EF1A2D"/>
</g>
</svg>
