<svg width="366" height="280" viewBox="0 0 366 280" fill="none" xmlns="http://www.w3.org/2000/svg">
<rect x="20.5402" y="116" width="249.442" height="5" rx="2.5" transform="rotate(4.54 20.5402 116)" fill="#E7DADA"/>
<rect x="32.5402" width="270.795" height="5" rx="2.5" transform="rotate(4.54 32.5402 0)" fill="#E7DADA"/>
<rect x="64.1444" y="152.377" width="270.795" height="5" rx="2.5" transform="rotate(-4.74 64.1444 152.377)" fill="#E7DADA"/>
<rect x="80.1444" y="263.377" width="270.795" height="5" rx="2.5" transform="rotate(-4.74 80.1444 263.377)" fill="#E7DADA"/>
<rect x="39.5402" y="129" width="158.68" height="5" rx="2.5" transform="rotate(4.54 39.5402 129)" fill="#E7DADA"/>
<rect x="114.144" y="274.353" width="222.104" height="5" rx="2.5" transform="rotate(-4.74 114.144 274.353)" fill="#E7DADA"/>
<g clip-path="url(#clip0_44_104)">
<mask id="mask0_44_104" style="mask-type:luminance" maskUnits="userSpaceOnUse" x="9" y="10" width="305" height="120">
<path d="M313.804 33.5697L16.7373 10L9.1444 105.699L306.211 129.269L313.804 33.5697Z" fill="white"/>
</mask>
<g mask="url(#mask0_44_104)">
<path d="M313.804 33.5697L16.7373 10L9.1444 105.699L306.211 129.269L313.804 33.5697Z" fill="white"/>
<path d="M313.804 33.5697L16.7373 10L9.1444 105.699L306.211 129.269L313.804 33.5697Z" fill="#E7DADA"/>
<path d="M313.804 33.5697L16.7373 10L15.1034 30.5935L312.17 54.1632L313.804 33.5697Z" fill="#F3E5E5"/>
<path d="M196.951 37.7075L126.625 32.1278C125.621 32.0481 124.742 32.797 124.662 33.8005C124.583 34.8041 125.332 35.6822 126.337 35.7619L196.663 41.3417C197.667 41.4214 198.546 40.6724 198.626 39.6689C198.705 38.6654 197.956 37.7872 196.951 37.7075Z" fill="#E7DADA"/>
<path d="M64.9276 86.964L30.9771 84.2703C29.9726 84.1906 29.0938 84.9395 29.0142 85.9431C28.9345 86.9466 29.6843 87.8248 30.6888 87.9045L64.6392 90.5981C65.6437 90.6778 66.5225 89.9289 66.6022 88.9254C66.6818 87.9218 65.932 87.0437 64.9276 86.964Z" fill="#F7898F"/>
<path d="M121.916 91.4855L87.9653 88.7919C86.9608 88.7122 86.0819 89.4611 86.0023 90.4646C85.9227 91.4682 86.6724 92.3463 87.6769 92.426L121.627 95.1197C122.632 95.1994 123.511 94.4505 123.59 93.4469C123.67 92.4434 122.92 91.5652 121.916 91.4855Z" fill="#F7898F"/>
<path d="M177.691 95.9109L143.741 93.2172C142.737 93.1375 141.858 93.8864 141.778 94.89C141.698 95.8935 142.448 96.7716 143.453 96.8513L177.403 99.545C178.408 99.6247 179.286 98.8758 179.366 97.8722C179.446 96.8687 178.696 95.9906 177.691 95.9109Z" fill="#F7898F"/>
<path d="M196.315 30.343L128.414 24.9557C127.41 24.876 126.531 25.6249 126.452 26.6284C126.372 27.632 127.122 28.5101 128.126 28.5898L196.027 33.9772C197.032 34.0569 197.91 33.3079 197.99 32.3044C198.07 31.3009 197.32 30.4227 196.315 30.343Z" fill="#F7898F"/>
<path d="M234.68 100.432L200.729 97.7387C199.725 97.659 198.846 98.4079 198.766 99.4115C198.687 100.415 199.436 101.293 200.441 101.373L234.391 104.067C235.396 104.146 236.275 103.397 236.354 102.394C236.434 101.39 235.684 100.512 234.68 100.432Z" fill="#F7898F"/>
<path d="M289.243 104.762L255.293 102.068C254.288 101.988 253.409 102.737 253.33 103.741C253.25 104.744 254 105.622 255.004 105.702L288.955 108.396C289.959 108.475 290.838 107.726 290.918 106.723C290.997 105.719 290.247 104.841 289.243 104.762Z" fill="#F7898F"/>
<path d="M60.7133 93.9437L35.2504 91.9234C34.2459 91.8437 33.3671 92.5926 33.2875 93.5962C33.2078 94.5997 33.9576 95.4779 34.9621 95.5576L60.4249 97.5778C61.4294 97.6575 62.3082 96.9086 62.3879 95.9051C62.4675 94.9015 61.7177 94.0234 60.7133 93.9437Z" fill="#FFF0F0"/>
<path d="M117.702 98.4652L92.2387 96.445C91.2342 96.3653 90.3554 97.1142 90.2758 98.1177C90.1961 99.1213 90.9459 99.9994 91.9504 100.079L117.413 102.099C118.418 102.179 119.297 101.43 119.376 100.427C119.456 99.4231 118.706 98.5449 117.702 98.4652Z" fill="#FFF0F0"/>
<path d="M173.477 102.891L148.014 100.87C147.01 100.791 146.131 101.54 146.052 102.543C145.972 103.547 146.722 104.425 147.726 104.504L173.189 106.525C174.193 106.604 175.072 105.855 175.152 104.852C175.232 103.848 174.482 102.97 173.477 102.891Z" fill="#FFF0F0"/>
<path d="M230.466 107.412L205.003 105.392C203.998 105.312 203.119 106.061 203.04 107.065C202.96 108.068 203.71 108.946 204.714 109.026L230.177 111.046C231.182 111.126 232.061 110.377 232.14 109.373C232.22 108.37 231.47 107.492 230.466 107.412Z" fill="#FFF0F0"/>
<path d="M285.029 111.741L259.566 109.721C258.561 109.641 257.683 110.39 257.603 111.394C257.523 112.397 258.273 113.275 259.278 113.355L284.74 115.375C285.745 115.455 286.624 114.706 286.703 113.703C286.783 112.699 286.033 111.821 285.029 111.741Z" fill="#FFF0F0"/>
<path d="M66.9532 38.3644L39.0654 36.1517C34.3778 35.7798 30.2765 39.2748 29.905 43.958L27.6944 71.8198C27.3228 76.503 30.8216 80.601 35.5092 80.9729L63.3971 83.1856C68.0846 83.5575 72.1859 80.0625 72.5575 75.3793L74.7681 47.5175C75.1396 42.8343 71.6408 38.7363 66.9532 38.3644Z" fill="#FFF0F0"/>
<path d="M49.9897 75.3157C54.0618 75.6388 57.8808 74.3829 60.871 72.0537C60.8311 70.5704 60.0056 69.0563 58.4191 67.7968C54.3851 64.6111 47.3687 64.0544 42.8515 66.5616C41.0863 67.5552 40.0324 68.9202 39.759 70.3786C42.3445 73.1502 45.9177 74.9926 49.9897 75.3157ZM49.9897 75.3157C58.6394 76.002 66.2072 69.5529 66.8929 60.9112C67.5785 52.2696 61.1223 44.7078 52.4726 44.0215C43.823 43.3353 36.2552 49.7844 35.5696 58.426C34.8839 67.0676 41.3401 74.6294 49.9897 75.3157ZM51.3223 60.904C51.2139 60.8797 51.073 60.8685 50.9464 60.8742C48.1974 60.5616 46.1836 58.1345 46.4033 55.3649C46.628 52.5328 49.0971 50.4141 51.9475 50.6403C54.7823 50.8652 56.9021 53.3479 56.6774 56.18C56.442 58.9484 54.0863 61.0288 51.3223 60.904Z" stroke="#F7898F" stroke-width="2" stroke-linecap="round" stroke-linejoin="round"/>
<path d="M178.505 47.215L150.617 45.0024C145.929 44.6304 141.828 48.1254 141.456 52.8086L139.246 80.6704C138.874 85.3536 142.373 89.4516 147.061 89.8235L174.949 92.0362C179.636 92.4081 183.737 88.9131 184.109 84.2299L186.32 56.3681C186.691 51.6849 183.192 47.5869 178.505 47.215Z" fill="#FFF0F0"/>
<path d="M161.541 84.1663C165.613 84.4894 169.433 83.2336 172.423 80.9043C172.383 79.421 171.557 77.907 169.971 76.6475C165.936 73.4617 158.921 72.9051 154.402 75.4122C152.637 76.4059 151.583 77.7708 151.31 79.2292C153.896 82.0009 157.47 83.8433 161.541 84.1663ZM161.541 84.1663C170.191 84.8526 177.759 78.4036 178.445 69.7619C179.13 61.1203 172.674 53.5585 164.024 52.8722C155.374 52.1859 147.806 58.635 147.121 67.2766C146.435 75.9183 152.891 83.48 161.541 84.1663ZM162.874 69.7546C162.766 69.7304 162.624 69.7191 162.498 69.7248C159.749 69.4123 157.735 66.9851 157.954 64.2155C158.179 61.3834 160.648 59.2648 163.499 59.491C166.334 59.7159 168.454 62.1986 168.229 65.0307C167.994 67.799 165.637 69.8794 162.874 69.7546Z" stroke="#F7898F" stroke-width="2" stroke-linecap="round" stroke-linejoin="round"/>
<path d="M287.631 55.8733L259.743 53.6606C255.056 53.2887 250.955 56.7837 250.583 61.4669L248.372 89.3287C248.001 94.0119 251.5 98.1099 256.187 98.4818L284.075 100.694C288.763 101.066 292.864 97.5714 293.235 92.8882L295.446 65.0264C295.818 60.3432 292.319 56.2452 287.631 55.8733Z" fill="#FFF0F0"/>
<path d="M270.668 92.8246C274.739 93.1476 278.559 91.8918 281.549 89.5626C281.509 88.0793 280.684 86.5652 279.098 85.3057C275.063 82.1199 268.047 81.5633 263.529 84.0705C261.764 85.0641 260.71 86.429 260.437 87.8875C263.022 90.6591 266.596 92.5015 270.668 92.8246ZM270.668 92.8246C279.318 93.5109 286.886 87.0618 287.571 78.4202C288.257 69.7785 281.801 62.2167 273.151 61.5304C264.501 60.8441 256.933 67.2932 256.247 75.9349C255.561 84.5765 262.018 92.1383 270.668 92.8246ZM272 78.4129C271.892 78.3886 271.751 78.3773 271.624 78.3831C268.876 78.0705 266.861 75.6433 267.081 72.8737C267.306 70.0416 269.775 67.923 272.625 68.1492C275.46 68.3741 277.58 70.8568 277.356 73.6889C277.12 76.4573 274.764 78.5377 272 78.4129Z" stroke="#F7898F" stroke-width="2" stroke-linecap="round" stroke-linejoin="round"/>
<path d="M122.729 42.7897L94.8411 40.577C90.1535 40.2051 86.0523 43.7001 85.6807 48.3833L83.4701 76.2451C83.0986 80.9283 86.5974 85.0263 91.285 85.3982L119.173 87.6109C123.86 87.9828 127.962 84.4878 128.333 79.8046L130.544 51.9428C130.915 47.2596 127.417 43.1616 122.729 42.7897Z" fill="#FFF0F0"/>
<path d="M105.765 79.741C109.837 80.0641 113.656 78.8082 116.647 76.479C116.607 74.9957 115.781 73.4816 114.195 72.2221C110.161 69.0364 103.144 68.4797 98.6271 70.9869C96.8619 71.9806 95.808 73.3455 95.5347 74.8039C98.1201 77.5756 101.693 79.4179 105.765 79.741ZM105.765 79.741C114.415 80.4273 121.983 73.9782 122.669 65.3366C123.354 56.6949 116.898 49.1332 108.248 48.4469C99.5987 47.7606 92.0308 54.2097 91.3452 62.8513C90.6596 71.493 97.1157 79.0547 105.765 79.741ZM107.098 65.3293C106.99 65.305 106.849 65.2938 106.722 65.2995C103.973 64.9869 101.959 62.5598 102.179 59.7902C102.404 56.9581 104.873 54.8395 107.723 55.0656C110.558 55.2905 112.678 57.7733 112.453 60.6053C112.218 63.3737 109.862 65.4541 107.098 65.3293Z" stroke="#F7898F" stroke-width="2" stroke-linecap="round" stroke-linejoin="round"/>
<path d="M234.281 51.6404L206.393 49.4277C201.705 49.0558 197.604 52.5508 197.232 57.234L195.022 85.0958C194.65 89.779 198.149 93.8769 202.836 94.2489L230.724 96.4615C235.412 96.8334 239.513 93.3385 239.885 88.6553L242.095 60.7935C242.467 56.1103 238.968 52.0123 234.281 51.6404Z" fill="#FFF0F0"/>
<path d="M217.317 88.5917C221.389 88.9147 225.208 87.6589 228.198 85.3296C228.159 83.8464 227.333 82.3323 225.747 81.0728C221.712 77.887 214.696 77.3304 210.178 79.8375C208.413 80.8312 207.359 82.1961 207.086 83.6546C209.671 86.4262 213.245 88.2686 217.317 88.5917ZM217.317 88.5917C225.967 89.278 233.535 82.8289 234.221 74.1872C234.906 65.5456 228.45 57.9838 219.8 57.2975C211.15 56.6112 203.582 63.0603 202.896 71.7019C202.211 80.3436 208.667 87.9054 217.317 88.5917ZM218.65 74.18C218.542 74.1557 218.4 74.1444 218.274 74.1501C215.525 73.8376 213.51 71.4104 213.73 68.6408C213.955 65.8087 216.424 63.6901 219.275 63.9163C222.11 64.1412 224.23 66.6239 224.005 69.456C223.769 72.2244 221.413 74.3048 218.65 74.18Z" stroke="#F7898F" stroke-width="2" stroke-linecap="round" stroke-linejoin="round"/>
</g>
</g>
<g clip-path="url(#clip1_44_104)">
<mask id="mask1_44_104" style="mask-type:luminance" maskUnits="userSpaceOnUse" x="55" y="137" width="306" height="121">
<path d="M352.124 137L55.1444 161.641L63.0825 257.312L360.062 232.671L352.124 137Z" fill="white"/>
</mask>
<g mask="url(#mask1_44_104)">
<path d="M352.124 137L55.1444 161.641L63.0825 257.312L360.062 232.671L352.124 137Z" fill="white"/>
<path d="M352.124 137L55.1444 161.641L63.0825 257.312L360.062 232.671L352.124 137Z" fill="#E7DADA"/>
<path d="M352.124 137L55.1444 161.641L56.8526 182.229L353.832 157.587L352.124 137Z" fill="#F3E5E5"/>
<path d="M237.468 159.926L167.162 165.76C166.158 165.843 165.412 166.724 165.495 167.727C165.578 168.73 166.46 169.476 167.464 169.393L237.769 163.559C238.773 163.476 239.52 162.595 239.437 161.592C239.354 160.589 238.472 159.843 237.468 159.926Z" fill="#E7DADA"/>
<path d="M115.114 229.827L81.174 232.643C80.1698 232.727 79.4232 233.608 79.5064 234.611C79.5897 235.614 80.4712 236.36 81.4754 236.276L115.416 233.46C116.42 233.377 117.167 232.496 117.083 231.493C117 230.49 116.119 229.744 115.114 229.827Z" fill="#F7898F"/>
<path d="M172.086 225.1L138.146 227.916C137.141 228 136.395 228.88 136.478 229.884C136.561 230.887 137.443 231.633 138.447 231.549L172.388 228.733C173.392 228.65 174.138 227.769 174.055 226.766C173.972 225.763 173.09 225.017 172.086 225.1Z" fill="#F7898F"/>
<path d="M227.846 220.474L193.905 223.29C192.901 223.373 192.154 224.254 192.238 225.257C192.321 226.26 193.202 227.006 194.206 226.923L228.147 224.107C229.151 224.023 229.898 223.143 229.815 222.139C229.731 221.136 228.85 220.39 227.846 220.474Z" fill="#F7898F"/>
<path d="M235.653 152.761L167.772 158.393C166.768 158.476 166.021 159.357 166.104 160.36C166.187 161.364 167.069 162.109 168.073 162.026L235.954 156.394C236.958 156.311 237.705 155.43 237.622 154.426C237.538 153.423 236.657 152.677 235.653 152.761Z" fill="#F7898F"/>
<path d="M284.817 215.747L250.877 218.563C249.872 218.646 249.126 219.527 249.209 220.53C249.292 221.533 250.174 222.279 251.178 222.196L285.119 219.38C286.123 219.296 286.869 218.415 286.786 217.412C286.703 216.409 285.821 215.663 284.817 215.747Z" fill="#F7898F"/>
<path d="M339.364 211.221L305.424 214.037C304.42 214.12 303.673 215.001 303.756 216.004C303.84 217.007 304.721 217.753 305.725 217.67L339.666 214.854C340.67 214.77 341.417 213.89 341.333 212.886C341.25 211.883 340.369 211.137 339.364 211.221Z" fill="#F7898F"/>
<path d="M112.081 237.395L86.6255 239.507C85.6213 239.591 84.8747 240.471 84.958 241.475C85.0412 242.478 85.9228 243.224 86.9269 243.14L112.382 241.028C113.387 240.945 114.133 240.064 114.05 239.061C113.967 238.058 113.085 237.312 112.081 237.395Z" fill="#FFF0F0"/>
<path d="M169.053 232.668L143.597 234.78C142.593 234.863 141.846 235.744 141.93 236.748C142.013 237.751 142.894 238.497 143.899 238.413L169.354 236.301C170.358 236.218 171.105 235.337 171.022 234.334C170.938 233.33 170.057 232.585 169.053 232.668Z" fill="#FFF0F0"/>
<path d="M224.812 228.042L199.357 230.154C198.352 230.237 197.606 231.118 197.689 232.121C197.772 233.124 198.654 233.87 199.658 233.787L225.113 231.675C226.118 231.591 226.864 230.71 226.781 229.707C226.698 228.704 225.816 227.958 224.812 228.042Z" fill="#FFF0F0"/>
<path d="M281.784 223.314L256.328 225.427C255.324 225.51 254.577 226.391 254.661 227.394C254.744 228.397 255.625 229.143 256.63 229.06L282.085 226.948C283.089 226.864 283.836 225.983 283.752 224.98C283.669 223.977 282.788 223.231 281.784 223.314Z" fill="#FFF0F0"/>
<path d="M336.331 218.789L310.875 220.901C309.871 220.984 309.125 221.865 309.208 222.868C309.291 223.871 310.173 224.617 311.177 224.534L336.632 222.422C337.636 222.338 338.383 221.457 338.3 220.454C338.216 219.451 337.335 218.705 336.331 218.789Z" fill="#FFF0F0"/>
<path d="M109.277 181.537L81.3972 183.85C76.711 184.239 73.227 188.35 73.6155 193.031L75.9266 220.885C76.315 225.567 80.4289 229.047 85.1151 228.658L112.995 226.345C117.681 225.956 121.165 221.846 120.777 217.164L118.465 189.31C118.077 184.628 113.963 181.148 109.277 181.537Z" fill="#FFF0F0"/>
<path d="M98.494 220.74C102.565 220.402 106.131 218.547 108.707 215.766C108.428 214.309 107.369 212.948 105.601 211.96C101.106 209.467 94.0914 210.049 90.0376 213.252C88.4558 214.517 87.6357 216.034 87.6011 217.517C90.5997 219.836 94.4232 221.078 98.494 220.74ZM98.494 220.74C107.141 220.023 113.57 212.438 112.853 203.798C112.136 195.159 104.545 188.738 95.8982 189.455C87.2511 190.173 80.8223 197.758 81.5391 206.397C82.2559 215.036 89.8469 221.458 98.494 220.74ZM97.4852 206.302C97.3744 206.296 97.2335 206.307 97.1095 206.333C94.3461 206.468 91.9672 204.397 91.7375 201.629C91.5026 198.797 93.5977 196.308 96.4472 196.072C99.2813 195.837 101.774 197.945 102.008 200.776C102.223 203.547 100.233 205.98 97.4852 206.302Z" stroke="#F7898F" stroke-width="2" stroke-linecap="round" stroke-linejoin="round"/>
<path d="M220.796 172.284L192.916 174.597C188.23 174.986 184.746 179.097 185.134 183.778L187.445 211.632C187.834 216.314 191.948 219.794 196.634 219.405L224.514 217.092C229.2 216.703 232.684 212.593 232.295 207.911L229.984 180.057C229.596 175.375 225.482 171.895 220.796 172.284Z" fill="#FFF0F0"/>
<path d="M210.013 211.487C214.083 211.149 217.651 209.294 220.226 206.513C219.947 205.056 218.889 203.695 217.12 202.707C212.624 200.214 205.611 200.796 201.556 203.999C199.974 205.264 199.154 206.781 199.12 208.264C202.118 210.583 205.942 211.825 210.013 211.487ZM210.013 211.487C218.66 210.77 225.089 203.185 224.372 194.545C223.656 185.906 216.065 179.485 207.417 180.202C198.769 180.92 192.341 188.505 193.057 197.144C193.774 205.783 201.365 212.205 210.013 211.487ZM209.004 197.049C208.894 197.043 208.752 197.054 208.628 197.08C205.865 197.215 203.486 195.144 203.256 192.376C203.021 189.544 205.116 187.055 207.966 186.819C210.8 186.584 213.293 188.692 213.528 191.523C213.742 194.294 211.751 196.727 209.004 197.049Z" stroke="#F7898F" stroke-width="2" stroke-linecap="round" stroke-linejoin="round"/>
<path d="M329.89 163.232L302.011 165.545C297.324 165.934 293.84 170.045 294.229 174.727L296.54 202.58C296.928 207.262 301.042 210.742 305.728 210.353L333.608 208.04C338.294 207.651 341.778 203.541 341.39 198.859L339.079 171.005C338.69 166.323 334.577 162.843 329.89 163.232Z" fill="#FFF0F0"/>
<path d="M319.107 202.435C323.178 202.098 326.745 200.242 329.32 197.461C329.042 196.004 327.983 194.643 326.214 193.655C321.719 191.162 314.705 191.744 310.65 194.947C309.069 196.212 308.249 197.729 308.214 199.212C311.212 201.531 315.037 202.773 319.107 202.435ZM319.107 202.435C327.755 201.718 334.184 194.133 333.467 185.494C332.75 176.854 325.159 170.433 316.511 171.15C307.864 171.868 301.435 179.453 302.152 188.092C302.869 196.731 310.46 203.153 319.107 202.435ZM318.099 187.997C317.988 187.991 317.846 188.002 317.723 188.028C314.96 188.163 312.58 186.093 312.35 183.324C312.115 180.493 314.211 178.004 317.061 177.767C319.895 177.532 322.387 179.64 322.622 182.472C322.836 185.242 320.846 187.675 318.099 187.997Z" stroke="#F7898F" stroke-width="2" stroke-linecap="round" stroke-linejoin="round"/>
<path d="M165.036 176.91L137.157 179.224C132.47 179.613 128.986 183.723 129.375 188.405L131.686 216.259C132.074 220.94 136.188 224.421 140.874 224.032L168.754 221.718C173.44 221.33 176.924 217.219 176.536 212.537L174.225 184.684C173.836 180.002 169.723 176.522 165.036 176.91Z" fill="#FFF0F0"/>
<path d="M154.253 216.114C158.324 215.776 161.891 213.921 164.466 211.14C164.188 209.682 163.129 208.321 161.36 207.334C156.865 204.84 149.851 205.422 145.797 208.625C144.215 209.89 143.395 211.407 143.36 212.891C146.359 215.209 150.182 216.451 154.253 216.114ZM154.253 216.114C162.901 215.396 169.329 207.811 168.613 199.172C167.896 190.533 160.305 184.111 151.658 184.829C143.01 185.546 136.582 193.131 137.298 201.77C138.015 210.409 145.606 216.831 154.253 216.114ZM153.245 201.676C153.134 201.669 152.993 201.681 152.869 201.707C150.105 201.842 147.726 199.771 147.497 197.002C147.262 194.171 149.357 191.682 152.207 191.445C155.041 191.21 157.533 193.319 157.768 196.15C157.982 198.92 155.992 201.353 153.245 201.676Z" stroke="#F7898F" stroke-width="2" stroke-linecap="round" stroke-linejoin="round"/>
<path d="M276.555 167.657L248.676 169.971C243.989 170.36 240.505 174.47 240.894 179.152L243.205 207.006C243.593 211.687 247.707 215.168 252.393 214.779L280.273 212.465C284.959 212.077 288.443 207.966 288.055 203.284L285.744 175.431C285.355 170.749 281.241 167.269 276.555 167.657Z" fill="#FFF0F0"/>
<path d="M265.772 206.861C269.843 206.523 273.41 204.668 275.985 201.887C275.707 200.429 274.648 199.068 272.879 198.081C268.384 195.587 261.37 196.169 257.315 199.372C255.733 200.637 254.913 202.154 254.879 203.638C257.877 205.956 261.702 207.198 265.772 206.861ZM265.772 206.861C274.42 206.143 280.849 198.558 280.132 189.919C279.415 181.28 271.824 174.858 263.176 175.576C254.529 176.293 248.1 183.878 248.817 192.517C249.534 201.156 257.125 207.578 265.772 206.861ZM264.763 192.423C264.653 192.416 264.511 192.428 264.388 192.454C261.625 192.589 259.245 190.518 259.015 187.749C258.78 184.918 260.876 182.429 263.725 182.192C266.559 181.957 269.052 184.066 269.287 186.897C269.501 189.667 267.511 192.1 264.763 192.423Z" stroke="#F7898F" stroke-width="2" stroke-linecap="round" stroke-linejoin="round"/>
</g>
</g>
<path d="M22.0912 174.092L27.9132 171.622L33.6694 185.188C35.0125 188.353 36.9988 188.266 38.0829 185.005L45.4702 162.749C46.383 160.027 44.9527 158.7 42.296 159.827L36.4741 162.298L30.7179 148.732C29.3748 145.567 27.3885 145.654 26.3044 148.915L18.9171 171.17C18.0311 173.903 19.4535 175.212 22.0912 174.092Z" stroke="#EF1A2D" stroke-width="6" stroke-miterlimit="10" stroke-linecap="round" stroke-linejoin="round"/>
<path d="M346.676 81.0499L340.637 79.17L345.017 65.0997C346.039 61.8166 344.468 60.5986 341.532 62.3856L321.507 74.5865C319.051 76.0727 319.284 78.0101 322.039 78.8679L328.077 80.7477L323.697 94.8181C322.675 98.1011 324.247 99.3192 327.182 97.5321L347.208 85.3312C349.65 83.8194 349.412 81.9016 346.676 81.0499Z" stroke="#EF1A2D" stroke-width="6" stroke-miterlimit="10" stroke-linecap="round" stroke-linejoin="round"/>
<path d="M29.3302 228.547L33.2197 220.904M21.2641 217.19L33.4876 208.157C38.9711 204.104 43.4154 206.366 43.3671 213.184L43.2594 228.383C43.187 238.61 38.154 240.236 32.0898 232.018L30.2678 229.541C29.8035 228.913 28.7703 228.387 27.989 228.381L24.8996 228.359C14.6866 228.294 13.0461 223.254 21.2641 217.19Z" stroke="#EF1A2D" stroke-width="3" stroke-linecap="round" stroke-linejoin="round"/>
<path d="M342.167 17.7126L340.627 13.6089C339.455 10.4882 337.309 9.51349 334.188 10.6849L326.387 13.6134C323.266 14.7848 322.291 16.9309 323.463 20.0516L324.962 24.0461M323.493 30.7569L326.404 38.5119C327.47 41.3518 327.47 41.3518 330.833 42.1544L339.813 43.6439C341.161 43.8678 342.971 43.1883 343.839 42.1327L349.62 35.1026C351.625 32.2852 351.625 32.2852 350.559 29.4453L347.648 21.6903C346.582 18.8504 346.582 18.8504 343.218 18.0478L334.239 16.5584C332.891 16.3345 331.081 17.0139 330.213 18.0695L324.432 25.0997C322.427 27.9171 322.427 27.9171 323.493 30.7569ZM336.536 25.8078L337.947 26.8627C338.169 27.0284 338.563 27.1297 338.821 27.1043L340.564 26.9126C341.641 26.7932 342.223 27.5363 341.876 28.5566L341.305 30.2129C341.225 30.4743 341.235 30.8801 341.344 31.1239L342.053 32.7271C342.496 33.7179 341.971 34.5023 340.895 34.4792L339.137 34.4446C338.868 34.4389 338.478 34.5853 338.279 34.7668L336.978 35.9493C336.182 36.6752 335.265 36.4141 334.953 35.392L334.432 33.7185C334.354 33.463 334.088 33.1354 333.862 33.0067L332.342 32.1352C331.409 31.5952 331.358 30.653 332.248 30.0344L333.687 29.0313C333.913 28.8751 334.137 28.5239 334.186 28.2742L334.554 26.5517C334.8 25.4982 335.673 25.1702 336.536 25.8078Z" stroke="#EF1A2D" stroke-width="3" stroke-linecap="round" stroke-linejoin="round"/>
<path d="M22.0912 172.34L27.9132 169.869L33.6694 183.435C35.0125 186.6 36.9988 186.513 38.0829 183.252L45.4702 160.996C46.383 158.275 44.9527 156.947 42.296 158.075L36.4741 160.545L30.7179 146.979C29.3748 143.814 27.3885 143.901 26.3044 147.162L18.9171 169.418C18.0311 172.15 19.4535 173.459 22.0912 172.34Z" stroke="#F7898F" stroke-width="6" stroke-miterlimit="10" stroke-linecap="round" stroke-linejoin="round"/>
<path d="M346.676 79.2971L340.637 77.4173L345.017 63.3469C346.039 60.0638 344.468 58.8458 341.532 60.6328L321.507 72.8338C319.051 74.3199 319.284 76.2573 322.039 77.1151L328.077 78.995L323.697 93.0653C322.675 96.3484 324.247 97.5664 327.182 95.7794L347.208 83.5785C349.65 82.0667 349.412 80.1488 346.676 79.2971Z" stroke="#F7898F" stroke-width="6" stroke-miterlimit="10" stroke-linecap="round" stroke-linejoin="round"/>
<path d="M29.3302 226.794L33.2197 219.151M21.2641 215.437L33.4876 206.404C38.9711 202.352 43.4154 204.613 43.3671 211.431L43.2594 226.63C43.187 236.857 38.154 238.484 32.0898 230.266L30.2678 227.788C29.8035 227.16 28.7703 226.634 27.989 226.628L24.8996 226.607C14.6866 226.541 13.0461 221.501 21.2641 215.437Z" stroke="#F7898F" stroke-width="3" stroke-linecap="round" stroke-linejoin="round"/>
<path d="M342.167 15.9599L340.627 11.8561C339.455 8.73541 337.309 7.76075 334.188 8.93215L326.387 11.8606C323.266 13.032 322.291 15.1781 323.463 18.2988L324.962 22.2934M323.493 29.0042L326.404 36.7592C327.47 39.5991 327.47 39.5991 330.833 40.4017L339.813 41.8911C341.161 42.115 342.971 41.4356 343.839 40.38L349.62 33.3498C351.625 30.5324 351.625 30.5324 350.559 27.6926L347.648 19.9376C346.582 17.0977 346.582 17.0977 343.218 16.2951L334.239 14.8056C332.891 14.5817 331.081 15.2612 330.213 16.3168L324.432 23.3469C322.427 26.1643 322.427 26.1643 323.493 29.0042ZM336.536 24.0551L337.947 25.1099C338.169 25.2757 338.563 25.377 338.821 25.3516L340.564 25.1598C341.641 25.0405 342.223 25.7835 341.876 26.8038L341.305 28.4602C341.225 28.7216 341.235 29.1273 341.344 29.3711L342.053 30.9744C342.496 31.9652 341.971 32.7495 340.895 32.7264L339.137 32.6919C338.868 32.6861 338.478 32.8325 338.279 33.014L336.978 34.1965C336.182 34.9225 335.265 34.6614 334.953 33.6393L334.432 31.9658C334.354 31.7103 334.088 31.3826 333.862 31.2539L332.342 30.3825C331.409 29.8424 331.358 28.9003 332.248 28.2816L333.687 27.2785C333.913 27.1224 334.137 26.7712 334.186 26.5215L334.554 24.7989C334.8 23.7455 335.673 23.4175 336.536 24.0551Z" stroke="#F7898F" stroke-width="3" stroke-linecap="round" stroke-linejoin="round"/>
<defs>
<clipPath id="clip0_44_104">
<rect x="16.7373" y="10" width="298" height="96" rx="10" transform="rotate(4.53642 16.7373 10)" fill="white"/>
</clipPath>
<clipPath id="clip1_44_104">
<rect x="55.1444" y="161.641" width="298" height="96" rx="10" transform="rotate(-4.74312 55.1444 161.641)" fill="white"/>
</clipPath>
</defs>
</svg>
