<svg width="427" height="242" viewBox="0 0 427 242" fill="none" xmlns="http://www.w3.org/2000/svg">
<ellipse cx="96.0365" cy="127.243" rx="90" ry="24.5" transform="rotate(2.65018 96.0365 127.243)" fill="#F3E5E5"/>
<ellipse cx="96" cy="124.238" rx="90" ry="24.5" transform="rotate(2.65018 96 124.238)" fill="#E7DADA"/>
<ellipse cx="333.685" cy="210.248" rx="90" ry="24.5" transform="rotate(-4.51243 333.685 210.248)" fill="#F3E5E5"/>
<ellipse cx="333.649" cy="207.243" rx="90" ry="24.5" transform="rotate(-4.51243 333.649 207.243)" fill="#E7DADA"/>
<path d="M57.9078 67.5858C65.5569 68.2993 72.3361 62.677 73.0496 55.0279C73.7632 47.3789 68.1408 40.5996 60.4918 39.8861C52.8427 39.1725 46.0635 44.7949 45.3499 52.4439C44.6364 60.093 50.2587 66.8723 57.9078 67.5858Z" stroke="#EF1A2D" stroke-width="8"/>
<path d="M22.7541 42.1867C35.0852 4.56019 92.0342 9.91749 97.1486 49.1714C100.15 72.198 84.3419 89.9774 70.9441 100.638C61.2183 108.418 47.1021 107.101 38.9385 97.6526C27.7882 84.7018 15.5456 64.2609 22.7541 42.1867Z" stroke="#EF1A2D" stroke-width="8"/>
<path d="M367.642 125.671C375.267 124.738 380.692 117.799 379.759 110.174C378.825 102.549 371.887 97.1238 364.261 98.0574C356.636 98.991 351.211 105.929 352.145 113.555C353.078 121.18 360.017 126.605 367.642 125.671Z" stroke="#EF1A2D" stroke-width="8"/>
<path d="M327.882 108.351C331.908 68.9602 388.689 62.0531 402.055 99.3142C409.896 121.172 398.242 141.912 387.425 155.185C379.582 164.859 365.509 166.582 355.519 159.091C341.864 148.815 325.545 131.454 327.882 108.351Z" stroke="#EF1A2D" stroke-width="8"/>
<path d="M228.943 96.4513L223.267 110.26C221.91 113.537 217.178 113.171 216.366 109.719L215.396 105.702C215.134 104.596 214.364 103.654 213.32 103.219L209.52 101.551C206.286 100.141 206.768 95.381 210.231 94.6651L224.828 91.5079C227.692 90.9094 230.076 93.7615 228.943 96.4513Z" stroke="#EF1A2D" stroke-width="4" stroke-linecap="round" stroke-linejoin="round"/>
<path d="M211.036 119.438L222.337 120.448C231.755 121.29 235.859 117.859 236.7 108.441L237.71 97.1398C238.552 87.7219 235.121 83.6181 225.703 82.7764L214.402 81.7665C204.984 80.9249 200.88 84.3554 200.039 93.7733L199.029 105.075C198.187 114.493 201.618 118.597 211.036 119.438Z" stroke="#EF1A2D" stroke-width="4" stroke-linecap="round" stroke-linejoin="round"/>
<path d="M253.5 197.238L204 204.238L211.5 170.238L253.5 129.238L250.5 104.738L268 78.2379L228 67.738L180.5 59.738L138.5 72.238L110.119 96.2236" stroke="#EF1A2D" stroke-width="9" stroke-linecap="round" stroke-dasharray="18 18"/>
<path d="M134.068 93.7176L132.145 93.5691M166.763 96.2408L164.84 96.0924M150.196 85.2888L149.899 89.1353M147.014 88.9126L152.784 89.3579M136.875 107.477L142.645 107.922M154.184 108.813L159.954 109.258M156.972 85.4828L143.471 84.4408C138.682 84.0713 137.44 86.3744 136.599 89.2503L133.623 99.4873L164.394 101.862L163.024 91.2897C162.634 88.3188 161.761 85.8524 156.972 85.4828ZM166.913 119.121C166.95 121.387 164.993 123.19 162.685 123.012L159.069 122.733C156.992 122.573 156.772 121.666 156.491 120.541L156.195 119.358C155.779 117.739 155.514 116.654 152.745 116.441L142.898 115.681C140.128 115.467 139.632 116.628 139.04 118.034L138.566 119.158C138.116 120.226 137.76 121.088 135.682 120.928L132.067 120.649C129.759 120.471 128.101 118.389 128.486 116.155L130.467 104.525C130.959 101.661 131.699 99.3389 136.738 99.7277L161.279 101.622C166.318 102.011 166.693 104.419 166.739 107.325L166.913 119.121Z" stroke="#EF1A2D" stroke-width="4" stroke-linecap="round" stroke-linejoin="round"/>
<path d="M258.623 120.413L283.752 131.888M271.35 110.147L275.784 112.172M285.578 122.021L292.236 125.044L296.286 116.174L294.005 113.346M260.84 121.425L272.315 96.2963C273.665 93.34 276.321 92.7663 278.774 93.8867L290.6 99.2866C293.054 100.407 294.359 102.79 293.009 105.746L281.535 130.875L260.84 121.425ZM276.168 106.988L282.421 109.843C283.958 110.545 285.552 110.38 286.49 108.325L287.321 106.507C288.259 104.452 287.34 103.139 285.803 102.437L279.55 99.5822C278.013 98.8802 276.419 99.0456 275.48 101.1L274.65 102.918C273.712 104.973 274.631 106.286 276.168 106.988Z" stroke="#EF1A2D" stroke-width="3" stroke-linecap="round" stroke-linejoin="round"/>
<path d="M193.737 145.625L180.083 149.049C178.09 149.544 176.068 151.565 175.573 153.559L172.15 167.213C171.118 171.338 173.648 173.882 177.787 172.85L191.441 169.44C193.421 168.945 195.456 166.91 195.951 164.93L199.375 151.263C200.406 147.138 197.862 144.594 193.737 145.625Z" stroke="#EF1A2D" stroke-width="4" stroke-linecap="round" stroke-linejoin="round"/>
<path d="M185.762 164.05C188.42 164.05 190.575 161.896 190.575 159.238C190.575 156.58 188.42 154.425 185.762 154.425C183.104 154.425 180.95 156.58 180.95 159.238C180.95 161.896 183.104 164.05 185.762 164.05Z" stroke="#EF1A2D" stroke-width="4" stroke-linecap="round" stroke-linejoin="round"/>
<path d="M325.852 181.78C328.965 182.042 332.31 181.244 334.563 179.492C337.561 177.171 337.292 173.781 333.965 171.963C331.441 170.591 327.967 170.336 324.936 171.108M303.49 183.558C300.458 184.309 297.029 184.05 294.527 182.676C291.2 180.858 290.931 177.468 293.929 175.147C296.204 173.393 299.594 172.592 302.709 172.876M326.888 165.57C326.752 165.559 326.595 165.571 326.462 165.604C323.358 165.74 320.693 163.449 320.448 160.367C320.198 157.219 322.576 154.482 325.783 154.227C328.99 153.972 331.773 156.32 332.021 159.446C332.244 162.53 329.975 165.214 326.888 165.57ZM299.906 167.716C300.039 167.683 300.196 167.67 300.332 167.682C303.418 167.326 305.688 164.642 305.443 161.56C305.192 158.412 302.412 156.085 299.204 156.34C295.997 156.595 293.621 159.354 293.869 162.48C294.137 165.56 296.802 167.852 299.906 167.716ZM314.738 183.084C314.602 183.073 314.445 183.086 314.312 183.118C311.208 183.254 308.543 180.963 308.298 177.881C308.048 174.733 310.426 171.996 313.633 171.741C316.841 171.486 319.623 173.835 319.872 176.961C320.094 180.044 317.827 182.75 314.738 183.084ZM308.763 190.538C305.765 192.859 306.034 196.249 309.362 198.067C313.137 200.137 319.014 199.669 322.415 197.029C325.413 194.708 325.144 191.318 321.817 189.5C318.065 187.45 312.166 187.919 308.763 190.538Z" stroke="#EF1A2D" stroke-width="4" stroke-linecap="round" stroke-linejoin="round"/>
<path d="M389.369 157.626L393.029 184.881M390.416 160.26L402.095 163.547C406.849 164.851 407.288 168.122 403.356 170.87L392.795 177.976" stroke="#EF1A2D" stroke-width="4" stroke-miterlimit="10" stroke-linecap="round" stroke-linejoin="round"/>
<path d="M237.013 171.218L240.591 172.284L238.107 180.621C237.528 182.567 238.464 183.275 240.184 182.198L251.918 174.851C253.357 173.956 253.205 172.814 251.572 172.327L247.994 171.261L250.478 162.923C251.057 160.978 250.121 160.27 248.401 161.346L236.668 168.694C235.237 169.604 235.392 170.735 237.013 171.218Z" stroke="#EF1A2D" stroke-width="3" stroke-miterlimit="10" stroke-linecap="round" stroke-linejoin="round"/>
<path d="M120.273 56.1941L123.023 53.669L128.907 60.0779C130.28 61.5733 131.367 61.1323 131.326 59.1037L131.037 45.2628C131.006 43.5682 129.948 43.1125 128.693 44.2647L125.943 46.7897L120.059 40.3808C118.686 38.8854 117.598 39.3264 117.64 41.355L117.929 55.1959C117.977 56.8913 119.027 57.3381 120.273 56.1941Z" stroke="#EF1A2D" stroke-width="3" stroke-miterlimit="10" stroke-linecap="round" stroke-linejoin="round"/>
<path d="M57.6457 64.5858C65.2948 65.2993 72.074 59.677 72.7876 52.0279C73.5011 44.3789 67.8788 37.5996 60.2297 36.8861C52.5806 36.1725 45.8014 41.7949 45.0878 49.4439C44.3743 57.093 49.9966 63.8723 57.6457 64.5858Z" stroke="#F7898F" stroke-width="8"/>
<path d="M22.492 39.1867C34.8231 1.56019 91.7721 6.91749 96.8865 46.1714C99.8878 69.198 84.0798 86.9774 70.6821 97.6383C60.9562 105.418 46.84 104.101 38.6764 94.6526C27.5261 81.7018 15.2835 61.2609 22.492 39.1867Z" stroke="#F7898F" stroke-width="8"/>
<path d="M367.38 122.671C375.005 121.738 380.43 114.799 379.496 107.174C378.563 99.5485 371.624 94.1238 363.999 95.0574C356.374 95.991 350.949 102.929 351.883 110.555C352.816 118.18 359.755 123.605 367.38 122.671Z" stroke="#F7898F" stroke-width="8"/>
<path d="M327.619 105.351C331.645 65.9602 388.427 59.0531 401.793 96.3142C409.634 118.172 397.98 138.912 387.163 152.185C379.319 161.859 365.247 163.582 355.257 156.091C341.602 145.815 325.283 128.454 327.619 105.351Z" stroke="#F7898F" stroke-width="8"/>
<path d="M228.681 93.4513L223.004 107.26C221.648 110.537 216.915 110.171 216.104 106.719L215.134 102.702C214.872 101.596 214.101 100.654 213.058 100.219L209.258 98.5506C206.023 97.1414 206.506 92.381 209.968 91.6651L224.566 88.5079C227.43 87.9094 229.814 90.7615 228.681 93.4513Z" stroke="#F7898F" stroke-width="4" stroke-linecap="round" stroke-linejoin="round"/>
<path d="M210.773 116.438L222.075 117.448C231.493 118.29 235.597 114.859 236.438 105.441L237.448 94.1398C238.29 84.7219 234.859 80.6181 225.441 79.7764L214.14 78.7665C204.722 77.9249 200.618 81.3554 199.776 90.7733L198.767 102.075C197.925 111.493 201.355 115.597 210.773 116.438Z" stroke="#F7898F" stroke-width="4" stroke-linecap="round" stroke-linejoin="round"/>
<path d="M133.806 90.7176L131.883 90.5691M166.501 93.2408L164.578 93.0924M149.934 82.2888L149.637 86.1353M146.752 85.9126L152.522 86.3579M136.613 104.477L142.383 104.922M153.923 105.813L159.692 106.258M156.71 82.4828L143.209 81.4408C138.42 81.0713 137.178 83.3744 136.337 86.2503L133.361 96.4873L164.132 98.8621L162.762 88.2897C162.372 85.3188 161.499 82.8524 156.71 82.4828ZM166.651 116.121C166.688 118.387 164.731 120.19 162.423 120.012L158.807 119.733C156.73 119.573 156.51 118.666 156.229 117.541L155.933 116.358C155.517 114.739 155.252 113.654 152.483 113.441L142.636 112.681C139.866 112.467 139.37 113.628 138.778 115.034L138.304 116.158C137.854 117.226 137.498 118.088 135.42 117.928L131.805 117.649C129.497 117.471 127.839 115.389 128.224 113.155L130.205 101.525C130.697 98.6614 131.437 96.3389 136.476 96.7277L161.017 98.6217C166.056 99.0106 166.431 101.419 166.477 104.325L166.651 116.121Z" stroke="#F7898F" stroke-width="4" stroke-linecap="round" stroke-linejoin="round"/>
<path d="M260.538 118.089L285.667 129.564M273.265 107.823L277.699 109.848M287.493 119.697L294.152 122.72L298.202 113.85L295.92 111.022M262.755 119.101L274.23 93.9724C275.58 91.016 278.236 90.4423 280.69 91.5628L292.515 96.9626C294.969 98.0831 296.275 100.466 294.925 103.422L283.45 128.551L262.755 119.101ZM278.084 104.664L284.336 107.519C285.874 108.221 287.468 108.056 288.406 106.001L289.236 104.183C290.174 102.128 289.255 100.815 287.718 100.113L281.465 97.2582C279.928 96.5563 278.334 96.7216 277.396 98.7763L276.566 100.594C275.627 102.649 276.546 103.962 278.084 104.664Z" stroke="#F7898F" stroke-width="3" stroke-linecap="round" stroke-linejoin="round"/>
<path d="M193.475 142.625L179.821 146.049C177.828 146.544 175.806 148.565 175.311 150.559L171.888 164.213C170.856 168.338 173.386 170.882 177.525 169.85L191.179 166.44C193.159 165.945 195.194 163.91 195.689 161.93L199.113 148.263C200.144 144.138 197.6 141.594 193.475 142.625Z" stroke="#F7898F" stroke-width="4" stroke-linecap="round" stroke-linejoin="round"/>
<path d="M185.5 161.05C188.158 161.05 190.313 158.896 190.313 156.238C190.313 153.58 188.158 151.425 185.5 151.425C182.842 151.425 180.688 153.58 180.688 156.238C180.688 158.896 182.842 161.05 185.5 161.05Z" stroke="#F7898F" stroke-width="4" stroke-linecap="round" stroke-linejoin="round"/>
<path d="M325.59 178.78C328.703 179.042 332.048 178.244 334.301 176.492C337.299 174.171 337.03 170.781 333.703 168.963C331.178 167.591 327.705 167.336 324.674 168.108M303.228 180.558C300.196 181.309 296.767 181.05 294.265 179.676C290.938 177.858 290.668 174.468 293.666 172.147C295.942 170.393 299.332 169.592 302.446 169.876M326.626 162.57C326.49 162.559 326.333 162.571 326.2 162.604C323.096 162.74 320.431 160.449 320.186 157.367C319.935 154.219 322.313 151.482 325.521 151.227C328.728 150.972 331.511 153.32 331.759 156.446C331.982 159.53 329.712 162.214 326.626 162.57ZM299.644 164.716C299.776 164.683 299.933 164.67 300.07 164.682C303.156 164.326 305.426 161.642 305.181 158.56C304.93 155.412 302.15 153.085 298.942 153.34C295.735 153.595 293.359 156.354 293.607 159.48C293.875 162.56 296.54 164.852 299.644 164.716ZM314.476 180.084C314.34 180.073 314.183 180.086 314.05 180.118C310.946 180.254 308.281 177.963 308.036 174.881C307.786 171.733 310.164 168.996 313.371 168.741C316.578 168.486 319.361 170.835 319.609 173.961C319.832 177.044 317.564 179.75 314.476 180.084ZM308.501 187.538C305.503 189.859 305.772 193.249 309.099 195.067C312.875 197.137 318.752 196.669 322.153 194.029C325.151 191.708 324.881 188.318 321.554 186.5C317.803 184.45 311.904 184.919 308.501 187.538Z" stroke="#F7898F" stroke-width="4" stroke-linecap="round" stroke-linejoin="round"/>
<path d="M389.107 154.626L392.767 181.881M390.154 157.26L401.833 160.547C406.586 161.851 407.026 165.122 403.094 167.87L392.533 174.976" stroke="#F7898F" stroke-width="4" stroke-miterlimit="10" stroke-linecap="round" stroke-linejoin="round"/>
<path d="M236.751 168.218L240.329 169.284L237.845 177.621C237.266 179.567 238.202 180.275 239.922 179.198L251.656 171.851C253.095 170.956 252.943 169.814 251.31 169.327L247.732 168.261L250.216 159.923C250.795 157.978 249.859 157.27 248.139 158.346L236.406 165.694C234.975 166.604 235.13 167.735 236.751 168.218Z" stroke="#F7898F" stroke-width="3" stroke-miterlimit="10" stroke-linecap="round" stroke-linejoin="round"/>
<path d="M120.011 53.1941L122.761 50.6691L128.645 57.0779C130.018 58.5734 131.105 58.1324 131.064 56.1038L130.774 42.2628C130.744 40.5682 129.686 40.1125 128.431 41.2647L125.681 43.7897L119.797 37.3808C118.424 35.8854 117.336 36.3264 117.378 38.355L117.667 52.196C117.715 53.8913 118.765 54.3381 120.011 53.1941Z" stroke="#F7898F" stroke-width="3" stroke-miterlimit="10" stroke-linecap="round" stroke-linejoin="round"/>
</svg>
