<svg width="287" height="253" viewBox="0 0 287 253" fill="none" xmlns="http://www.w3.org/2000/svg">
<rect x="54" y="13.6479" width="133.448" height="5" rx="2.5" transform="rotate(-5.87 54 13.6479)" fill="#E7DADA"/>
<path d="M46.4089 29.3065C46.1831 27.1089 47.7815 25.1444 49.979 24.9185L200.785 9.42077C202.983 9.19494 204.948 10.7933 205.173 12.9909L207.014 30.9055C207.24 33.1031 205.642 35.0677 203.444 35.2935L52.6379 50.7913C50.4403 51.0171 48.4758 49.4187 48.2499 47.2211L46.4089 29.3065Z" fill="#FFF0F0"/>
<path d="M73.2021 35.605C73.7361 40.801 69.9568 45.4461 64.7607 45.9801C59.5647 46.5141 54.9196 42.7347 54.3856 37.5387C53.8516 32.3426 57.631 27.6975 62.827 27.1636C68.0231 26.6296 72.6682 30.4089 73.2021 35.605Z" fill="#F7898F"/>
<path d="M78.5385 29.7086C78.4383 28.7343 79.147 27.8633 80.1212 27.7632L96.5857 26.0712C97.5599 25.9711 98.4309 26.6797 98.531 27.654C98.6311 28.6283 97.9225 29.4992 96.9483 29.5993L80.4838 31.2913C79.5095 31.3914 78.6386 30.6828 78.5385 29.7086Z" fill="#F7898F"/>
<path d="M78.5385 29.7086C78.4383 28.7343 79.147 27.8633 80.1212 27.7632L96.5857 26.0712C97.5599 25.9711 98.4309 26.6797 98.531 27.654C98.6311 28.6283 97.9225 29.4992 96.9483 29.5993L80.4838 31.2913C79.5095 31.3914 78.6386 30.6828 78.5385 29.7086Z" fill="#F7898F"/>
<path d="M78.5385 29.7086C78.4383 28.7343 79.147 27.8633 80.1212 27.7632L96.5857 26.0712C97.5599 25.9711 98.4309 26.6797 98.531 27.654C98.6311 28.6283 97.9225 29.4992 96.9483 29.5993L80.4838 31.2913C79.5095 31.3914 78.6386 30.6828 78.5385 29.7086Z" fill="#F7898F"/>
<path d="M106.763 26.808C106.663 25.8337 107.372 24.9628 108.346 24.8627L168.324 18.699C169.298 18.5989 170.169 19.3075 170.269 20.2818C170.369 21.256 169.661 22.127 168.686 22.2271L108.709 28.3908C107.734 28.4909 106.863 27.7823 106.763 26.808Z" fill="#E7DADA"/>
<path d="M79.5053 39.1168C79.4052 38.1426 80.1138 37.2716 81.0881 37.1715L149.298 30.1618C150.272 30.0617 151.143 30.7703 151.243 31.7446C151.343 32.7188 150.635 33.5898 149.661 33.6899L81.4506 40.6996C80.4764 40.7997 79.6054 40.0911 79.5053 39.1168Z" fill="#E7DADA"/>
<path d="M62.6036 186.895C62.3778 184.697 63.9762 182.733 66.1738 182.507L216.98 167.009C219.178 166.783 221.142 168.382 221.368 170.579L225.505 210.839C225.731 213.036 224.133 215.001 221.935 215.227L71.1289 230.724C68.9313 230.95 66.9668 229.352 66.7409 227.154L62.6036 186.895Z" fill="#E7DADA"/>
<path d="M85.7479 192.38C85.6144 191.081 86.5593 189.92 87.8583 189.786L100.795 188.457C102.094 188.323 103.255 189.268 103.388 190.567C103.522 191.866 102.577 193.027 101.278 193.161L88.3417 194.49C87.0427 194.624 85.8814 193.679 85.7479 192.38Z" fill="#F3E5E5"/>
<path d="M125.733 188.271C125.6 186.972 126.544 185.811 127.843 185.677L140.78 184.348C142.079 184.214 143.24 185.159 143.374 186.458C143.507 187.757 142.562 188.918 141.263 189.052L128.327 190.381C127.028 190.515 125.867 189.57 125.733 188.271Z" fill="#F3E5E5"/>
<path d="M71.9098 208.063C71.7763 206.764 72.7211 205.603 74.0201 205.47L192.799 193.263C194.098 193.13 195.26 194.075 195.393 195.374C195.527 196.673 194.582 197.834 193.283 197.967L74.5035 210.174C73.2045 210.307 72.0433 209.362 71.9098 208.063Z" fill="#F3E5E5"/>
<path d="M73.1183 219.824C72.9848 218.525 73.9297 217.364 75.2287 217.23L158.727 208.649C160.026 208.516 161.187 209.461 161.321 210.76C161.454 212.059 160.509 213.22 159.21 213.353L75.7121 221.934C74.4131 222.068 73.2518 221.123 73.1183 219.824Z" fill="#F3E5E5"/>
<path d="M82.2198 192.743C82.5536 195.99 80.1915 198.893 76.9439 199.227C73.6964 199.561 70.7932 197.199 70.4595 193.951C70.1258 190.704 72.4879 187.8 75.7354 187.467C78.9829 187.133 81.8861 189.495 82.2198 192.743Z" fill="#F7898F"/>
<path d="M119.853 188.875C120.187 192.123 117.825 195.026 114.577 195.36C111.329 195.693 108.426 193.331 108.093 190.084C107.759 186.836 110.121 183.933 113.368 183.599C116.616 183.266 119.519 185.628 119.853 188.875Z" fill="#F7898F"/>
<path d="M49.174 55.079C48.9482 52.8814 50.5466 50.9169 52.7442 50.6911L203.551 35.1933C205.748 34.9675 207.713 36.5659 207.939 38.7634L220.657 162.521C220.882 164.719 219.284 166.683 217.086 166.909L66.2801 182.407C64.0825 182.633 62.118 181.034 61.8921 178.837L49.174 55.079Z" fill="#F3E5E5"/>
<path d="M206.535 34.8861C207.583 33.8574 208.171 32.3782 208.009 30.8033L206.168 12.8887C205.886 10.1417 203.43 8.14372 200.683 8.42601L49.8768 23.9238C47.1299 24.2061 45.1319 26.6618 45.4141 29.4087L47.2552 47.3234C47.4224 48.9507 48.3524 50.3152 49.6538 51.0984C48.6051 52.1271 48.0174 53.6063 48.1793 55.1812L60.8974 178.939C61.0647 180.567 61.9957 181.932 63.2984 182.715C62.1161 183.747 61.4363 185.318 61.6089 186.997L65.7462 227.256C66.0285 230.003 68.4842 232.001 71.2311 231.719L222.037 216.221C224.784 215.939 226.782 213.483 226.5 210.736L222.363 170.477C222.196 168.849 221.265 167.484 219.962 166.701C221.144 165.669 221.824 164.098 221.651 162.419L208.933 38.6612C208.766 37.0339 207.836 35.6694 206.535 34.8861Z" stroke="#E7DADA" stroke-width="2"/>
<path d="M217.428 92.8004L250.894 96.9692M228.494 76.1862L234.4 76.9219M249.41 84.8093L258.272 85.8931L259.743 74.0813L256.051 71.6222M220.381 93.1682L224.55 59.7015C225.04 55.7642 227.923 54.1242 231.191 54.5312L246.94 56.4931C250.208 56.9001 252.601 59.1974 252.11 63.1346L247.942 96.6014L220.381 93.1682ZM232.95 70.7438L241.277 71.7811C243.325 72.0361 245.121 71.2603 245.462 68.5239L245.763 66.1025C246.104 63.3661 244.553 62.1733 242.506 61.9183L234.179 60.8809C232.131 60.6259 230.335 61.4018 229.994 64.1382L229.693 66.5596C229.352 69.296 230.903 70.4887 232.95 70.7438Z" stroke="#F7898F" stroke-width="5" stroke-linecap="round" stroke-linejoin="round"/>
<path d="M14.1927 184.915L11.4091 185.297M61.5127 178.415L58.7292 178.798M34.5493 167.938L35.314 173.505M31.1387 174.079L39.4893 172.932M22.436 203.635L30.7866 202.488M47.4878 200.194L55.8384 199.047M44.2545 166.123L24.7141 168.807C17.7831 169.759 16.7263 173.421 16.4167 177.774L15.3396 193.265L59.8761 187.148L54.6624 172.521C53.1906 168.413 51.1855 165.171 44.2545 166.123ZM68.7874 210.938C69.5409 214.153 67.3106 217.324 63.9703 217.782L58.7373 218.501C55.7311 218.914 55.1377 217.691 54.3909 216.177L53.6048 214.583C52.5119 212.408 51.8006 210.946 47.7923 211.496L33.5406 213.454C29.5323 214.004 29.1848 215.81 28.7757 217.994L28.4484 219.74C28.1374 221.399 27.8957 222.737 24.8895 223.15L19.6565 223.869C16.3162 224.328 13.3136 221.876 13.1725 218.577L12.4029 201.411C12.2191 197.182 12.5561 193.648 19.849 192.646L55.3668 187.767C62.6597 186.766 63.9372 190.079 64.9003 194.2L68.7874 210.938Z" stroke="#F7898F" stroke-width="6" stroke-linecap="round" stroke-linejoin="round"/>
<path d="M40.1809 130.459C40.6364 126.963 37.5297 123.675 33.2381 123.116C28.9465 122.557 25.101 124.939 24.6456 128.435M43.2551 137.179L41.7792 136.987C40.2257 136.784 38.6714 137.194 37.4422 138.14L33.6939 140.989C31.9844 142.287 29.5182 141.966 28.1983 140.273L25.3052 136.558C24.3594 135.329 22.9426 134.532 21.4085 134.332L19.9521 134.143C16.7285 133.723 14.4628 130.801 14.8778 127.616L17.6383 106.43C18.0533 103.245 20.9919 101.001 24.2155 101.421L47.5186 104.458C50.7421 104.878 53.0078 107.799 52.5928 110.984L49.8323 132.171C49.4199 135.336 46.4787 137.599 43.2551 137.179ZM38.9596 114.52C38.634 117.019 36.3443 118.781 33.8454 118.455C31.3465 118.13 29.5846 115.84 29.9102 113.341C30.2358 110.842 32.5256 109.081 35.0245 109.406C37.5234 109.732 39.2852 112.021 38.9596 114.52Z" stroke="#F7898F" stroke-width="4" stroke-linecap="round" stroke-linejoin="round"/>
<path d="M280.207 183.5L270.36 173.653M265.193 125.455L264.965 137.773C264.933 139.463 266.005 141.705 267.37 142.713L275.43 148.822C280.598 152.722 279.753 157.5 273.578 159.45L263.08 162.732C261.325 163.285 259.473 165.203 259.018 166.99L256.515 176.545C254.533 184.085 249.593 184.833 245.498 178.203L239.778 168.94C238.738 167.25 236.268 165.983 234.318 166.08L223.463 166.633C215.695 167.023 213.485 162.538 218.555 156.623L224.99 149.148C226.193 147.75 226.745 145.15 226.193 143.395L222.91 132.898C220.993 126.723 224.438 123.31 230.58 125.325L240.168 128.478C241.793 128.998 244.23 128.64 245.595 127.633L255.605 120.418C261 116.518 265.323 118.793 265.193 125.455Z" stroke="#F7898F" stroke-width="9" stroke-linecap="round" stroke-linejoin="round"/>
<path d="M217.428 94.8004L250.894 98.9692M228.494 78.1862L234.4 78.9219M249.41 86.8093L258.272 87.8931L259.743 76.0813L256.051 73.6222M220.381 95.1682L224.55 61.7015C225.04 57.7642 227.923 56.1242 231.191 56.5312L246.94 58.4931C250.208 58.9001 252.601 61.1974 252.11 65.1346L247.942 98.6014L220.381 95.1682ZM232.95 72.7438L241.277 73.7811C243.325 74.0361 245.121 73.2603 245.462 70.5239L245.763 68.1025C246.104 65.3661 244.553 64.1733 242.506 63.9183L234.179 62.8809C232.131 62.6259 230.335 63.4018 229.994 66.1382L229.693 68.5596C229.352 71.296 230.903 72.4887 232.95 72.7438Z" stroke="#EF1A2D" stroke-width="5" stroke-linecap="round" stroke-linejoin="round"/>
<path d="M14.1927 186.915L11.4091 187.297M61.5127 180.415L58.7292 180.798M34.5493 169.938L35.314 175.505M31.1387 176.079L39.4893 174.932M22.436 205.635L30.7866 204.488M47.4878 202.194L55.8384 201.047M44.2545 168.123L24.7141 170.807C17.7831 171.759 16.7263 175.421 16.4167 179.774L15.3396 195.265L59.8761 189.148L54.6624 174.521C53.1906 170.413 51.1855 167.171 44.2545 168.123ZM68.7874 212.938C69.5409 216.153 67.3106 219.324 63.9703 219.782L58.7373 220.501C55.7311 220.914 55.1377 219.691 54.3909 218.177L53.6048 216.583C52.5119 214.408 51.8006 212.946 47.7923 213.496L33.5406 215.454C29.5323 216.004 29.1848 217.81 28.7757 219.994L28.4484 221.74C28.1374 223.399 27.8957 224.737 24.8895 225.15L19.6565 225.869C16.3162 226.328 13.3136 223.876 13.1725 220.577L12.4029 203.411C12.2191 199.182 12.5561 195.648 19.849 194.646L55.3668 189.767C62.6597 188.766 63.9372 192.079 64.9003 196.2L68.7874 212.938Z" stroke="#EF1A2D" stroke-width="6" stroke-linecap="round" stroke-linejoin="round"/>
<path d="M40.1809 132.459C40.6364 128.963 37.5297 125.675 33.2381 125.116C28.9465 124.557 25.101 126.939 24.6456 130.435M43.2551 139.179L41.7792 138.987C40.2257 138.784 38.6714 139.194 37.4422 140.14L33.6939 142.989C31.9844 144.287 29.5182 143.966 28.1983 142.273L25.3052 138.558C24.3594 137.329 22.9426 136.532 21.4085 136.332L19.9521 136.143C16.7285 135.723 14.4628 132.801 14.8778 129.616L17.6383 108.43C18.0533 105.245 20.9919 103.001 24.2155 103.421L47.5186 106.458C50.7421 106.878 53.0078 109.799 52.5928 112.984L49.8323 134.171C49.4199 137.336 46.4787 139.599 43.2551 139.179ZM38.9596 116.52C38.634 119.019 36.3443 120.781 33.8454 120.455C31.3465 120.13 29.5846 117.84 29.9102 115.341C30.2358 112.842 32.5256 111.081 35.0245 111.406C37.5234 111.732 39.2852 114.021 38.9596 116.52Z" stroke="#EF1A2D" stroke-width="4" stroke-linecap="round" stroke-linejoin="round"/>
<path d="M280.207 185.5L270.36 175.653M265.193 127.455L264.965 139.773C264.933 141.463 266.005 143.705 267.37 144.713L275.43 150.822C280.598 154.722 279.753 159.5 273.578 161.45L263.08 164.732C261.325 165.285 259.473 167.203 259.018 168.99L256.515 178.545C254.533 186.085 249.593 186.833 245.498 180.203L239.778 170.94C238.738 169.25 236.268 167.983 234.318 168.08L223.463 168.633C215.695 169.023 213.485 164.538 218.555 158.623L224.99 151.148C226.193 149.75 226.745 147.15 226.193 145.395L222.91 134.898C220.993 128.723 224.438 125.31 230.58 127.325L240.168 130.478C241.793 130.998 244.23 130.64 245.595 129.633L255.605 122.418C261 118.518 265.323 120.793 265.193 127.455Z" stroke="#EF1A2D" stroke-width="9" stroke-linecap="round" stroke-linejoin="round"/>
<rect x="82" y="239.648" width="133.448" height="5" rx="2.5" transform="rotate(-5.87 82 239.648)" fill="#E7DADA"/>
<rect x="96" y="247.931" width="106.884" height="5" rx="2.5" transform="rotate(-5.87 96 247.931)" fill="#E7DADA"/>
</svg>
